<?xml version="1.0" encoding="UTF-8" standalone="no"?>
<!-- Generator: Adobe Illustrator 19.0.0, SVG Export Plug-In . SVG Version: 6.00 Build 0)  -->

<svg
   xmlns:dc="http://purl.org/dc/elements/1.1/"
   xmlns:cc="http://creativecommons.org/ns#"
   xmlns:rdf="http://www.w3.org/1999/02/22-rdf-syntax-ns#"
   xmlns:svg="http://www.w3.org/2000/svg"
   xmlns="http://www.w3.org/2000/svg"
   xmlns:sodipodi="http://sodipodi.sourceforge.net/DTD/sodipodi-0.dtd"
   xmlns:inkscape="http://www.inkscape.org/namespaces/inkscape"
   version="1.1"
   id="Capa_1"
   x="0px"
   y="0px"
   viewBox="0 0 58 58"
   style="enable-background:new 0 0 58 58;"
   xml:space="preserve"
   sodipodi:docname="newspaper.svg"
   inkscape:version="0.92.4 (5da689c313, 2019-01-14)"><metadata
   id="metadata65"><rdf:RDF><cc:Work
       rdf:about=""><dc:format>image/svg+xml</dc:format><dc:type
         rdf:resource="http://purl.org/dc/dcmitype/StillImage" /></cc:Work></rdf:RDF></metadata><defs
   id="defs63" /><sodipodi:namedview
   pagecolor="#ffffff"
   bordercolor="#666666"
   borderopacity="1"
   objecttolerance="10"
   gridtolerance="10"
   guidetolerance="10"
   inkscape:pageopacity="0"
   inkscape:pageshadow="2"
   inkscape:window-width="1366"
   inkscape:window-height="713"
   id="namedview61"
   showgrid="false"
   inkscape:zoom="4.0689655"
   inkscape:cx="29"
   inkscape:cy="29"
   inkscape:window-x="0"
   inkscape:window-y="24"
   inkscape:window-maximized="1"
   inkscape:current-layer="Capa_1" />
<path
   style="fill:#cec9ae;stroke-width:0.79369801"
   d="m 9.6429817,51.855932 v 0 c -2.1826696,0 -3.9684902,-1.785821 -3.9684902,-3.96849 V 29.632387 h 7.9369805 v 18.255055 c 0,2.182669 -1.78582,3.96849 -3.9684903,3.96849 z"
   id="path2"
   inkscape:connector-curvature="0" />
<rect
   x="13.611472"
   style="fill:#cec9ae;stroke-width:0.79369801"
   width="36.502174"
   height="8.7306786"
   id="rect4"
   y="5.8214464" />
<path
   style="fill:#edeada;stroke-width:0.79369801"
   d="m 13.611472,33.600878 v 5.555886 8.730678 c 0,2.182669 -1.78582,3.96849 -3.9684903,3.96849 h 3.9684903 4.762188 27.779432 c 2.187431,0 3.960553,-1.773121 3.960553,-3.960553 V 16.139521 H 13.611472 Z"
   id="path6"
   inkscape:connector-curvature="0" />
<rect
   x="13.611472"
   y="14.552123"
   style="fill:#f4f3ed;stroke-width:0.79369801"
   width="36.502174"
   height="1.587396"
   id="rect8" />
<rect
   x="18.373659"
   y="18.520615"
   style="fill:#61b872;stroke-width:0.79369801"
   width="9.5243759"
   height="9.5243759"
   id="rect10" />
<path
   style="fill:#cec9ae;stroke-width:0.79369801"
   d="M 45.359394,19.314312 H 32.660225 c -0.438915,0 -0.793698,-0.354782 -0.793698,-0.793697 0,-0.438915 0.354783,-0.793699 0.793698,-0.793699 h 12.699169 c 0.438915,0 0.793698,0.354784 0.793698,0.793699 0,0.438915 -0.354783,0.793697 -0.793698,0.793697 z"
   id="path12"
   inkscape:connector-curvature="0" />
<path
   style="fill:#cec9ae;stroke-width:0.79369801"
   d="M 45.359394,24.076501 H 32.660225 c -0.438915,0 -0.793698,-0.354783 -0.793698,-0.793698 0,-0.438915 0.354783,-0.793698 0.793698,-0.793698 h 12.699169 c 0.438915,0 0.793698,0.354783 0.793698,0.793698 0,0.438915 -0.354783,0.793698 -0.793698,0.793698 z"
   id="path14"
   inkscape:connector-curvature="0" />
<path
   style="fill:#cec9ae;stroke-width:0.79369801"
   d="M 45.359394,28.838689 H 32.660225 c -0.438915,0 -0.793698,-0.354783 -0.793698,-0.793698 0,-0.438915 0.354783,-0.793698 0.793698,-0.793698 h 12.699169 c 0.438915,0 0.793698,0.354783 0.793698,0.793698 0,0.438915 -0.354783,0.793698 -0.793698,0.793698 z"
   id="path16"
   inkscape:connector-curvature="0" />
<path
   style="fill:#cec9ae;stroke-width:0.79369801"
   d="M 45.359394,33.600878 H 19.167359 c -0.438915,0 -0.793699,-0.354784 -0.793699,-0.793699 0,-0.438915 0.354784,-0.793697 0.793699,-0.793697 h 26.192035 c 0.438915,0 0.793698,0.354782 0.793698,0.793697 0,0.438915 -0.354783,0.793699 -0.793698,0.793699 z"
   id="path18"
   inkscape:connector-curvature="0" />
<path
   style="fill:#cec9ae;stroke-width:0.79369801"
   d="m 31.072829,38.363065 h -11.90547 c -0.438915,0 -0.793699,-0.354782 -0.793699,-0.793697 0,-0.438915 0.354784,-0.793699 0.793699,-0.793699 h 11.90547 c 0.438915,0 0.793698,0.354784 0.793698,0.793699 0,0.438915 -0.354783,0.793697 -0.793698,0.793697 z"
   id="path20"
   inkscape:connector-curvature="0" />
<path
   style="fill:#cec9ae;stroke-width:0.79369801"
   d="m 31.072829,43.125254 h -11.90547 c -0.438915,0 -0.793699,-0.354783 -0.793699,-0.793698 0,-0.438916 0.354784,-0.793699 0.793699,-0.793699 h 11.90547 c 0.438915,0 0.793698,0.354783 0.793698,0.793699 0,0.438915 -0.354783,0.793698 -0.793698,0.793698 z"
   id="path22"
   inkscape:connector-curvature="0" />
<path
   style="fill:#cec9ae;stroke-width:0.79369801"
   d="m 31.072829,47.887442 h -11.90547 c -0.438915,0 -0.793699,-0.354784 -0.793699,-0.793698 0,-0.438915 0.354784,-0.793698 0.793699,-0.793698 h 11.90547 c 0.438915,0 0.793698,0.354783 0.793698,0.793698 0,0.438914 -0.354783,0.793698 -0.793698,0.793698 z"
   id="path24"
   inkscape:connector-curvature="0" />
<rect
   x="35.835014"
   y="37.569366"
   style="fill:#f7b563;stroke-width:0.79369801"
   width="9.5243759"
   height="9.5243759"
   id="rect26" />
<rect
   x="23.135849"
   y="8.9962387"
   style="fill:#8e8872;stroke-width:0.79369801"
   width="17.461357"
   height="3.1747921"
   id="rect28" />
<g
   id="g30">
</g>
<g
   id="g32">
</g>
<g
   id="g34">
</g>
<g
   id="g36">
</g>
<g
   id="g38">
</g>
<g
   id="g40">
</g>
<g
   id="g42">
</g>
<g
   id="g44">
</g>
<g
   id="g46">
</g>
<g
   id="g48">
</g>
<g
   id="g50">
</g>
<g
   id="g52">
</g>
<g
   id="g54">
</g>
<g
   id="g56">
</g>
<g
   id="g58">
</g>
</svg>